# xmcd
#
# Track frame offsets: 
#        150
#        11667
#        24468
#        36151
#        49163
#        55641
#        68829
#        74323
#        91084
#        102010
#        112511
#        120626
#        134639
#        139814
#        147473
#        157122
#        170817
#        181977
#        192570
#        199616
#        212055
#        225361
#        238696
#        251773
#        264895
#        277197
#        290233
#        303649
#        316214
#
# Disc length: 4380 seconds
#
# Revision: 1
# Processed by: cddbd v1.5.2PL0 Copyright (c) Steve Scherf et al.
# Submitted via: ExactAudioCopy v0.99pb4
#
DISCID=b1111a1d
DTITLE=Leadbelly - Complete Recorded Works 1944 - Volume 4
DYEAR=1994
DGENRE=blues
TTITLE0=In the Evenin' When The Sun Goes Down
TTITLE1=Easy Rider (See See Rider)
TTITLE2=We Shall Be Free
TTITLE3=Keep Your HAnds Off Her
TTITLE4=There's A Man Going Round Taking Names
TTITLE5=Red Bird
TTITLE6=Line 'Em
TTITLE7=T. B. Blues
TTITLE8=Jim Crow Blues
TTITLE9=Bourgeois Blues
TTITLE10=Army Life
TTITLE11=Mr. Hitler (Hitler Song)
TTITLE12=Juliana Johnson
TTITLE13=Jean Harlow
TTITLE14=Corn Bread Rough
TTITLE15=National Defense Blues
TTITLE16=Children's Blues (Little Children's Blues)
TTITLE17=The Blood Done Sign My Name (Ain't You Glad)
TTITLE18=Cow Cow Yicky Yicky Yea
TTITLE19=Ella Speed 
TTITLE20=Rock Island Line
TTITLE21=Tell Me Baby
TTITLE22=Take This Hammer
TTITLE23=Irene (Goodnight Irene)
TTITLE24=Western Plain
TTITLE25=On A Christmas Day
TTITLE26=Backwater Blues
TTITLE27=Eagle Rock Rag (Hot Piano Rag)
TTITLE28=The Eagle Rocks
EXTD=
EXTT0=
EXTT1=
EXTT2=
EXTT3=
EXTT4=
EXTT5=
EXTT6=
EXTT7=
EXTT8=
EXTT9=
EXTT10=
EXTT11=
EXTT12=
EXTT13=
EXTT14=
EXTT15=
EXTT16=
EXTT17=
EXTT18=
EXTT19=
EXTT20=
EXTT21=
EXTT22=
EXTT23=
EXTT24=
EXTT25=
EXTT26=
EXTT27=
EXTT28=
PLAYORDER=
